<svg width="369" height="100" viewBox="0 0 369 100" fill="none" xmlns="http://www.w3.org/2000/svg">
<path d="M0 59.895L30.768 42.1311V77.6589L0 59.895Z" fill="#C12D2D"/>
<path d="M0 59.895L30.768 77.6589V59.895H0Z" fill="#9A2727"/>
<path d="M107.581 59.3863C107.581 81.8166 89.3979 100 66.9675 100C44.5372 100 26.3538 81.8166 26.3538 59.3863C26.3538 36.9559 44.5372 18.7726 66.9675 18.7726C89.3979 18.7726 107.581 36.9559 107.581 59.3863Z" fill="#5DA7CC"/>
<path d="M100.722 59.7473C100.722 78.3894 85.6096 93.5018 66.9675 93.5018C48.3254 93.5018 33.213 78.3894 33.213 59.7473C33.213 41.1052 48.3254 25.9928 66.9675 25.9928C85.6096 25.9928 100.722 41.1052 100.722 59.7473Z" fill="#407B99"/>
<path d="M90.2527 59.9278C90.2527 72.8875 79.7467 83.3935 66.787 83.3935C53.8273 83.3935 43.3213 72.8875 43.3213 59.9278C43.3213 46.968 53.8273 36.4621 66.787 36.4621C79.7467 36.4621 90.2527 46.968 90.2527 59.9278Z" fill="#37667D"/>
<path d="M79.5865 51.6902C79.5865 58.4872 74.0764 63.9974 67.2793 63.9974C60.4822 63.9974 54.9721 58.4872 54.9721 51.6902C54.9721 44.8931 60.4822 39.383 67.2793 39.383C74.0764 39.383 79.5865 44.8931 79.5865 51.6902Z" fill="black"/>
<path d="M67.2793 47.5878C67.2793 49.8535 65.4426 51.6902 63.1769 51.6902C60.9112 51.6902 59.0745 49.8535 59.0745 47.5878C59.0745 45.3221 60.9112 43.4854 63.1769 43.4854C65.4426 43.4854 67.2793 45.3221 67.2793 47.5878Z" fill="white"/>
<path d="M73.8431 8.20479C73.8431 12.7362 70.1697 16.4096 65.6383 16.4096C61.1069 16.4096 57.4335 12.7362 57.4335 8.20479C57.4335 3.67341 61.1069 0 65.6383 0C70.1697 0 73.8431 3.67341 73.8431 8.20479Z" fill="#5DA7CC"/>
<path d="M87.7913 12.7174C87.7913 16.116 85.0362 18.871 81.6377 18.871C78.2391 18.871 75.4841 16.116 75.4841 12.7174C75.4841 9.31889 78.2391 6.56384 81.6377 6.56384C85.0362 6.56384 87.7913 9.31889 87.7913 12.7174Z" fill="#37667D"/>
<path d="M95.9961 19.6915C95.9961 21.9572 94.1594 23.7939 91.8937 23.7939C89.628 23.7939 87.7913 21.9572 87.7913 19.6915C87.7913 17.4258 89.628 15.5891 91.8937 15.5891C94.1594 15.5891 95.9961 17.4258 95.9961 19.6915Z" fill="#37667D"/>
<path d="M143.236 51H134.212V25.5455H143.31C145.871 25.5455 148.075 26.055 149.923 27.0742C151.77 28.0851 153.191 29.5393 154.186 31.4368C155.188 33.3343 155.69 35.6046 155.69 38.2479C155.69 40.8994 155.188 43.178 154.186 45.0838C153.191 46.9896 151.762 48.4521 149.898 49.4712C148.042 50.4904 145.821 51 143.236 51ZM139.594 46.3888H143.012C144.603 46.3888 145.941 46.1071 147.027 45.5437C148.12 44.9719 148.941 44.0895 149.488 42.8963C150.043 41.6948 150.32 40.1454 150.32 38.2479C150.32 36.367 150.043 34.8299 149.488 33.6367C148.941 32.4435 148.125 31.5652 147.039 31.0018C145.954 30.4383 144.615 30.1566 143.025 30.1566H139.594V46.3888ZM175.399 25.5455H180.781V42.076C180.781 43.9321 180.337 45.5561 179.451 46.9482C178.572 48.3402 177.342 49.4257 175.759 50.2045C174.177 50.9751 172.333 51.3604 170.228 51.3604C168.116 51.3604 166.268 50.9751 164.685 50.2045C163.102 49.4257 161.872 48.3402 160.994 46.9482C160.115 45.5561 159.676 43.9321 159.676 42.076V25.5455H165.058V41.6161C165.058 42.5856 165.269 43.4473 165.692 44.2013C166.123 44.9554 166.728 45.5478 167.506 45.9787C168.285 46.4096 169.193 46.625 170.228 46.625C171.272 46.625 172.18 46.4096 172.95 45.9787C173.729 45.5478 174.33 44.9554 174.753 44.2013C175.183 43.4473 175.399 42.5856 175.399 41.6161V25.5455ZM185.208 25.5455H191.846L198.855 42.6477H199.154L206.164 25.5455H212.801V51H207.581V34.4322H207.369L200.782 50.8757H197.227L190.64 34.37H190.429V51H185.208V25.5455ZM217.235 51V25.5455H227.427C229.299 25.5455 230.861 25.823 232.112 26.3782C233.363 26.9334 234.304 27.704 234.934 28.69C235.563 29.6677 235.878 30.7946 235.878 32.0707C235.878 33.065 235.679 33.9392 235.282 34.6932C234.884 35.4389 234.337 36.0521 233.641 36.5327C232.953 37.005 232.166 37.3406 231.28 37.5394V37.788C232.249 37.8294 233.156 38.1029 234.002 38.6083C234.855 39.1138 235.547 39.8222 236.077 40.7337C236.607 41.6368 236.873 42.714 236.873 43.9652C236.873 45.3158 236.537 46.5214 235.866 47.582C235.203 48.6344 234.221 49.4671 232.92 50.0803C231.619 50.6934 230.016 51 228.11 51H217.235ZM222.617 46.6001H227.004C228.504 46.6001 229.598 46.3143 230.285 45.7425C230.973 45.1625 231.317 44.3919 231.317 43.4308C231.317 42.7264 231.147 42.105 230.807 41.5664C230.468 41.0278 229.983 40.6052 229.353 40.2987C228.732 39.9921 227.99 39.8388 227.128 39.8388H222.617V46.6001ZM222.617 36.1971H226.606C227.344 36.1971 227.998 36.0687 228.57 35.8118C229.15 35.5466 229.606 35.1738 229.937 34.6932C230.277 34.2126 230.447 33.6367 230.447 32.9656C230.447 32.0458 230.12 31.3042 229.465 30.7408C228.819 30.1773 227.899 29.8956 226.706 29.8956H222.617V36.1971ZM240.374 51V25.5455H245.756V46.5629H256.669V51H240.374ZM260.233 51V25.5455H277.385V29.9826H265.615V36.0479H276.502V40.4851H265.615V46.5629H277.435V51H260.233ZM289.764 51V25.5455H299.956C301.829 25.5455 303.39 25.823 304.642 26.3782C305.893 26.9334 306.833 27.704 307.463 28.69C308.093 29.6677 308.408 30.7946 308.408 32.0707C308.408 33.065 308.209 33.9392 307.811 34.6932C307.413 35.4389 306.866 36.0521 306.17 36.5327C305.483 37.005 304.695 37.3406 303.809 37.5394V37.788C304.778 37.8294 305.686 38.1029 306.531 38.6083C307.384 39.1138 308.076 39.8222 308.606 40.7337C309.137 41.6368 309.402 42.714 309.402 43.9652C309.402 45.3158 309.066 46.5214 308.395 47.582C307.732 48.6344 306.75 49.4671 305.449 50.0803C304.149 50.6934 302.545 51 300.639 51H289.764ZM295.146 46.6001H299.533C301.033 46.6001 302.127 46.3143 302.815 45.7425C303.502 45.1625 303.846 44.3919 303.846 43.4308C303.846 42.7264 303.676 42.105 303.337 41.5664C302.997 41.0278 302.512 40.6052 301.882 40.2987C301.261 39.9921 300.519 39.8388 299.658 39.8388H295.146V46.6001ZM295.146 36.1971H299.136C299.873 36.1971 300.528 36.0687 301.099 35.8118C301.679 35.5466 302.135 35.1738 302.467 34.6932C302.806 34.2126 302.976 33.6367 302.976 32.9656C302.976 32.0458 302.649 31.3042 301.994 30.7408C301.348 30.1773 300.428 29.8956 299.235 29.8956H295.146V36.1971ZM318.286 25.5455V51H312.904V25.5455H318.286ZM322.713 51V25.5455H332.756C334.678 25.5455 336.319 25.8893 337.678 26.5771C339.045 27.2565 340.085 28.2218 340.797 29.473C341.518 30.7159 341.879 32.1784 341.879 33.8604C341.879 35.5508 341.514 37.005 340.785 38.223C340.056 39.4328 338.999 40.3608 337.616 41.0071C336.24 41.6534 334.575 41.9766 332.619 41.9766H325.895V37.6513H331.749C332.777 37.6513 333.63 37.5104 334.31 37.2287C334.989 36.947 335.494 36.5244 335.826 35.9609C336.166 35.3975 336.335 34.6973 336.335 33.8604C336.335 33.0153 336.166 32.3027 335.826 31.7227C335.494 31.1426 334.985 30.7035 334.297 30.4052C333.618 30.0986 332.76 29.9453 331.724 29.9453H328.095V51H322.713ZM336.46 39.4162L342.786 51H336.845L330.655 39.4162H336.46ZM354.706 51H345.682V25.5455H354.78C357.34 25.5455 359.545 26.055 361.392 27.0742C363.24 28.0851 364.661 29.5393 365.655 31.4368C366.658 33.3343 367.159 35.6046 367.159 38.2479C367.159 40.8994 366.658 43.178 365.655 45.0838C364.661 46.9896 363.232 48.4521 361.367 49.4712C359.511 50.4904 357.291 51 354.706 51ZM351.064 46.3888H354.482C356.073 46.3888 357.411 46.1071 358.496 45.5437C359.59 44.9719 360.41 44.0895 360.957 42.8963C361.512 41.6948 361.79 40.1454 361.79 38.2479C361.79 36.367 361.512 34.8299 360.957 33.6367C360.41 32.4435 359.594 31.5652 358.509 31.0018C357.423 30.4383 356.085 30.1566 354.494 30.1566H351.064V46.3888Z" fill="#393939"/>
<path d="M146.432 70.7273C146.432 72.2945 146.138 73.6368 145.551 74.7543C144.969 75.867 144.173 76.7192 143.165 77.3111C142.161 77.9029 141.022 78.1989 139.749 78.1989C138.475 78.1989 137.334 77.9029 136.325 77.3111C135.321 76.7145 134.526 75.8598 133.939 74.7472C133.357 73.6297 133.065 72.2898 133.065 70.7273C133.065 69.16 133.357 67.8201 133.939 66.7074C134.526 65.59 135.321 64.7353 136.325 64.1435C137.334 63.5516 138.475 63.2557 139.749 63.2557C141.022 63.2557 142.161 63.5516 143.165 64.1435C144.173 64.7353 144.969 65.59 145.551 66.7074C146.138 67.8201 146.432 69.16 146.432 70.7273ZM143.783 70.7273C143.783 69.6241 143.61 68.6937 143.264 67.9361C142.923 67.1738 142.45 66.5985 141.844 66.2102C141.238 65.8172 140.539 65.6207 139.749 65.6207C138.958 65.6207 138.259 65.8172 137.653 66.2102C137.047 66.5985 136.571 67.1738 136.226 67.9361C135.885 68.6937 135.714 69.6241 135.714 70.7273C135.714 71.8305 135.885 72.7633 136.226 73.5256C136.571 74.2831 137.047 74.8584 137.653 75.2514C138.259 75.6397 138.958 75.8338 139.749 75.8338C140.539 75.8338 141.238 75.6397 141.844 75.2514C142.45 74.8584 142.923 74.2831 143.264 73.5256C143.61 72.7633 143.783 71.8305 143.783 70.7273ZM148.809 82.0909V67.0909H151.338V68.8949H151.487C151.619 68.6297 151.806 68.348 152.048 68.0497C152.289 67.7467 152.616 67.4886 153.028 67.2756C153.44 67.0578 153.966 66.9489 154.605 66.9489C155.448 66.9489 156.208 67.1643 156.885 67.5952C157.566 68.0213 158.106 68.6534 158.504 69.4915C158.906 70.3248 159.108 71.3475 159.108 72.5597C159.108 73.7576 158.911 74.7756 158.518 75.6136C158.125 76.4517 157.59 77.0909 156.913 77.5312C156.236 77.9716 155.469 78.1918 154.612 78.1918C153.987 78.1918 153.468 78.0876 153.056 77.8793C152.645 77.6709 152.313 77.42 152.062 77.1264C151.816 76.8281 151.624 76.5464 151.487 76.2812H151.38V82.0909H148.809ZM151.331 72.5455C151.331 73.2509 151.43 73.8688 151.629 74.3991C151.833 74.9295 152.124 75.3437 152.502 75.642C152.886 75.9356 153.35 76.0824 153.895 76.0824C154.463 76.0824 154.939 75.9309 155.322 75.6278C155.706 75.3201 155.994 74.901 156.189 74.3707C156.387 73.8357 156.487 73.2273 156.487 72.5455C156.487 71.8684 156.39 71.267 156.196 70.7415C156.002 70.2159 155.713 69.804 155.329 69.5057C154.946 69.2074 154.467 69.0582 153.895 69.0582C153.345 69.0582 152.879 69.2027 152.495 69.4915C152.112 69.7803 151.821 70.1851 151.622 70.706C151.428 71.2268 151.331 71.84 151.331 72.5455ZM166.139 78.2131C165.045 78.2131 164.1 77.9858 163.305 77.5312C162.514 77.072 161.906 76.4233 161.48 75.5852C161.054 74.7424 160.841 73.7505 160.841 72.6094C160.841 71.4872 161.054 70.5024 161.48 69.6548C161.911 68.8026 162.512 68.1397 163.284 67.6662C164.056 67.188 164.962 66.9489 166.004 66.9489C166.676 66.9489 167.311 67.0578 167.907 67.2756C168.509 67.4886 169.039 67.8201 169.498 68.2699C169.962 68.7197 170.327 69.2926 170.592 69.9886C170.857 70.6799 170.99 71.5038 170.99 72.4602V73.2486H162.048V71.5156H168.525C168.52 71.0232 168.414 70.5852 168.206 70.2017C167.997 69.8134 167.706 69.508 167.332 69.2855C166.963 69.063 166.532 68.9517 166.039 68.9517C165.514 68.9517 165.052 69.0795 164.654 69.3352C164.257 69.5862 163.947 69.9176 163.724 70.3295C163.506 70.7367 163.395 71.1842 163.39 71.6719V73.1847C163.39 73.8191 163.506 74.3636 163.738 74.8182C163.97 75.268 164.295 75.6136 164.711 75.8551C165.128 76.0919 165.616 76.2102 166.174 76.2102C166.548 76.2102 166.887 76.1581 167.19 76.054C167.493 75.9451 167.756 75.7865 167.978 75.5781C168.201 75.3698 168.369 75.1117 168.483 74.804L170.883 75.0739C170.732 75.7083 170.443 76.2623 170.017 76.7358C169.595 77.2045 169.056 77.5691 168.397 77.8295C167.739 78.0852 166.986 78.2131 166.139 78.2131ZM175.736 71.608V78H173.165V67.0909H175.622V68.9446H175.75C176.001 68.3338 176.401 67.8485 176.95 67.4886C177.504 67.1288 178.188 66.9489 179.003 66.9489C179.756 66.9489 180.411 67.1098 180.97 67.4318C181.534 67.7538 181.969 68.2202 182.277 68.831C182.589 69.4418 182.743 70.1828 182.739 71.054V78H180.168V71.4517C180.168 70.7225 179.978 70.152 179.599 69.7401C179.225 69.3281 178.707 69.1222 178.044 69.1222C177.594 69.1222 177.194 69.2216 176.844 69.4205C176.498 69.6146 176.226 69.8963 176.027 70.2656C175.833 70.6349 175.736 71.0824 175.736 71.608ZM198.332 67.4531C198.265 66.8329 197.986 66.3499 197.494 66.0043C197.006 65.6586 196.371 65.4858 195.59 65.4858C195.041 65.4858 194.57 65.5687 194.177 65.7344C193.784 65.9001 193.483 66.125 193.275 66.4091C193.067 66.6932 192.96 67.0175 192.955 67.3821C192.955 67.6851 193.024 67.9479 193.161 68.1705C193.303 68.393 193.495 68.5824 193.737 68.7386C193.978 68.8902 194.246 69.018 194.539 69.1222C194.833 69.2263 195.129 69.3139 195.427 69.3849L196.79 69.7259C197.34 69.8537 197.868 70.0265 198.374 70.2443C198.886 70.4621 199.343 70.7367 199.745 71.0682C200.152 71.3996 200.474 71.7997 200.711 72.2685C200.948 72.7372 201.066 73.2865 201.066 73.9162C201.066 74.7685 200.848 75.5189 200.413 76.1676C199.977 76.8116 199.347 77.3158 198.523 77.6804C197.704 78.0402 196.712 78.2202 195.548 78.2202C194.416 78.2202 193.433 78.045 192.6 77.6946C191.772 77.3442 191.123 76.8329 190.654 76.1605C190.19 75.4882 189.939 74.669 189.901 73.7031H192.494C192.531 74.2098 192.688 74.6312 192.962 74.9673C193.237 75.3035 193.594 75.5545 194.035 75.7202C194.48 75.8859 194.977 75.9688 195.526 75.9688C196.099 75.9688 196.601 75.8835 197.032 75.7131C197.468 75.5379 197.808 75.2964 198.055 74.9886C198.301 74.6761 198.426 74.3116 198.431 73.8949C198.426 73.5161 198.315 73.2036 198.097 72.9574C197.879 72.7064 197.574 72.4981 197.181 72.3324C196.793 72.1619 196.338 72.0104 195.817 71.8778L194.163 71.4517C192.965 71.1439 192.018 70.6776 191.322 70.0526C190.63 69.4228 190.285 68.5871 190.285 67.5455C190.285 66.6884 190.517 65.938 190.981 65.294C191.45 64.6501 192.086 64.1506 192.891 63.7955C193.696 63.4356 194.608 63.2557 195.626 63.2557C196.658 63.2557 197.562 63.4356 198.339 63.7955C199.12 64.1506 199.733 64.6454 200.178 65.2798C200.623 65.9096 200.853 66.634 200.867 67.4531H198.332ZM208.06 78.2131C206.995 78.2131 206.071 77.9787 205.29 77.5099C204.509 77.0412 203.903 76.3854 203.472 75.5426C203.046 74.6998 202.833 73.715 202.833 72.5881C202.833 71.4612 203.046 70.474 203.472 69.6264C203.903 68.7789 204.509 68.1207 205.29 67.652C206.071 67.1832 206.995 66.9489 208.06 66.9489C209.125 66.9489 210.049 67.1832 210.83 67.652C211.611 68.1207 212.215 68.7789 212.641 69.6264C213.072 70.474 213.287 71.4612 213.287 72.5881C213.287 73.715 213.072 74.6998 212.641 75.5426C212.215 76.3854 211.611 77.0412 210.83 77.5099C210.049 77.9787 209.125 78.2131 208.06 78.2131ZM208.074 76.1534C208.652 76.1534 209.135 75.9948 209.523 75.6776C209.911 75.3556 210.2 74.9247 210.39 74.3849C210.584 73.8452 210.681 73.2438 210.681 72.581C210.681 71.9134 210.584 71.3097 210.39 70.7699C210.2 70.2254 209.911 69.7921 209.523 69.4702C209.135 69.1482 208.652 68.9872 208.074 68.9872C207.482 68.9872 206.99 69.1482 206.597 69.4702C206.209 69.7921 205.917 70.2254 205.723 70.7699C205.534 71.3097 205.439 71.9134 205.439 72.581C205.439 73.2438 205.534 73.8452 205.723 74.3849C205.917 74.9247 206.209 75.3556 206.597 75.6776C206.99 75.9948 207.482 76.1534 208.074 76.1534ZM222.423 73.4119V67.0909H224.994V78H222.501V76.0611H222.387C222.141 76.6719 221.736 77.1714 221.173 77.5597C220.614 77.9479 219.925 78.142 219.106 78.142C218.391 78.142 217.759 77.9834 217.21 77.6662C216.665 77.3442 216.239 76.8778 215.931 76.267C215.623 75.6515 215.469 74.9081 215.469 74.0369V67.0909H218.04V73.6392C218.04 74.3305 218.23 74.8797 218.609 75.2869C218.987 75.6941 219.485 75.8977 220.1 75.8977C220.479 75.8977 220.846 75.8054 221.201 75.6207C221.556 75.4361 221.847 75.1615 222.075 74.7969C222.307 74.4276 222.423 73.9659 222.423 73.4119ZM227.637 78V67.0909H230.13V68.9091H230.244C230.443 68.2794 230.784 67.794 231.267 67.4531C231.754 67.1075 232.311 66.9347 232.936 66.9347C233.078 66.9347 233.236 66.9418 233.412 66.956C233.592 66.9654 233.741 66.982 233.859 67.0057V69.3707C233.75 69.3329 233.577 69.2997 233.341 69.2713C233.109 69.2382 232.884 69.2216 232.666 69.2216C232.197 69.2216 231.776 69.3234 231.402 69.527C231.032 69.7259 230.741 70.0028 230.528 70.358C230.315 70.7131 230.208 71.1226 230.208 71.5866V78H227.637ZM239.876 78.2131C238.787 78.2131 237.852 77.974 237.071 77.4957C236.295 77.0175 235.696 76.357 235.274 75.5142C234.857 74.6667 234.649 73.6913 234.649 72.5881C234.649 71.4801 234.862 70.5024 235.288 69.6548C235.714 68.8026 236.316 68.1397 237.092 67.6662C237.874 67.188 238.797 66.9489 239.862 66.9489C240.748 66.9489 241.531 67.1122 242.213 67.4389C242.9 67.7609 243.446 68.2178 243.854 68.8097C244.261 69.3968 244.493 70.0833 244.55 70.8693H242.092C241.993 70.3437 241.756 69.9058 241.382 69.5554C241.013 69.2003 240.518 69.0227 239.898 69.0227C239.372 69.0227 238.911 69.1648 238.513 69.4489C238.115 69.7282 237.805 70.1307 237.582 70.6562C237.365 71.1818 237.256 71.8116 237.256 72.5455C237.256 73.2888 237.365 73.928 237.582 74.4631C237.8 74.9934 238.106 75.4029 238.499 75.6918C238.896 75.9759 239.363 76.1179 239.898 76.1179C240.277 76.1179 240.615 76.0469 240.913 75.9048C241.216 75.758 241.47 75.5473 241.673 75.2727C241.877 74.9981 242.017 74.6643 242.092 74.2713H244.55C244.488 75.0431 244.261 75.7273 243.868 76.3239C243.475 76.9157 242.94 77.3797 242.263 77.7159C241.586 78.0473 240.79 78.2131 239.876 78.2131ZM251.49 78.2131C250.397 78.2131 249.452 77.9858 248.657 77.5312C247.866 77.072 247.257 76.4233 246.831 75.5852C246.405 74.7424 246.192 73.7505 246.192 72.6094C246.192 71.4872 246.405 70.5024 246.831 69.6548C247.262 68.8026 247.864 68.1397 248.635 67.6662C249.407 67.188 250.314 66.9489 251.355 66.9489C252.028 66.9489 252.662 67.0578 253.259 67.2756C253.86 67.4886 254.391 67.8201 254.85 68.2699C255.314 68.7197 255.678 69.2926 255.944 69.9886C256.209 70.6799 256.341 71.5038 256.341 72.4602V73.2486H247.4V71.5156H253.877C253.872 71.0232 253.766 70.5852 253.557 70.2017C253.349 69.8134 253.058 69.508 252.684 69.2855C252.314 69.063 251.883 68.9517 251.391 68.9517C250.865 68.9517 250.404 69.0795 250.006 69.3352C249.608 69.5862 249.298 69.9176 249.076 70.3295C248.858 70.7367 248.747 71.1842 248.742 71.6719V73.1847C248.742 73.8191 248.858 74.3636 249.09 74.8182C249.322 75.268 249.646 75.6136 250.063 75.8551C250.48 76.0919 250.967 76.2102 251.526 76.2102C251.9 76.2102 252.239 76.1581 252.542 76.054C252.845 75.9451 253.107 75.7865 253.33 75.5781C253.552 75.3698 253.721 75.1117 253.834 74.804L256.235 75.0739C256.083 75.7083 255.794 76.2623 255.368 76.7358C254.947 77.2045 254.407 77.5691 253.749 77.8295C253.091 78.0852 252.338 78.2131 251.49 78.2131ZM266.226 63.4545V78H263.591V63.4545H266.226ZM273.724 78.2131C272.635 78.2131 271.7 77.974 270.919 77.4957C270.142 77.0175 269.543 76.357 269.122 75.5142C268.705 74.6667 268.497 73.6913 268.497 72.5881C268.497 71.4801 268.71 70.5024 269.136 69.6548C269.562 68.8026 270.163 68.1397 270.94 67.6662C271.721 67.188 272.645 66.9489 273.71 66.9489C274.595 66.9489 275.379 67.1122 276.061 67.4389C276.747 67.7609 277.294 68.2178 277.701 68.8097C278.109 69.3968 278.341 70.0833 278.397 70.8693H275.94C275.841 70.3437 275.604 69.9058 275.23 69.5554C274.86 69.2003 274.366 69.0227 273.745 69.0227C273.22 69.0227 272.758 69.1648 272.36 69.4489C271.963 69.7282 271.653 70.1307 271.43 70.6562C271.212 71.1818 271.103 71.8116 271.103 72.5455C271.103 73.2888 271.212 73.928 271.43 74.4631C271.648 74.9934 271.953 75.4029 272.346 75.6918C272.744 75.9759 273.21 76.1179 273.745 76.1179C274.124 76.1179 274.463 76.0469 274.761 75.9048C275.064 75.758 275.317 75.5473 275.521 75.2727C275.725 74.9981 275.864 74.6643 275.94 74.2713H278.397C278.336 75.0431 278.109 75.7273 277.716 76.3239C277.323 76.9157 276.788 77.3797 276.11 77.7159C275.433 78.0473 274.638 78.2131 273.724 78.2131ZM285.267 78.2131C284.202 78.2131 283.278 77.9787 282.497 77.5099C281.716 77.0412 281.11 76.3854 280.679 75.5426C280.253 74.6998 280.04 73.715 280.04 72.5881C280.04 71.4612 280.253 70.474 280.679 69.6264C281.11 68.7789 281.716 68.1207 282.497 67.652C283.278 67.1832 284.202 66.9489 285.267 66.9489C286.332 66.9489 287.256 67.1832 288.037 67.652C288.818 68.1207 289.422 68.7789 289.848 69.6264C290.279 70.474 290.494 71.4612 290.494 72.5881C290.494 73.715 290.279 74.6998 289.848 75.5426C289.422 76.3854 288.818 77.0412 288.037 77.5099C287.256 77.9787 286.332 78.2131 285.267 78.2131ZM285.281 76.1534C285.859 76.1534 286.342 75.9948 286.73 75.6776C287.118 75.3556 287.407 74.9247 287.597 74.3849C287.791 73.8452 287.888 73.2438 287.888 72.581C287.888 71.9134 287.791 71.3097 287.597 70.7699C287.407 70.2254 287.118 69.7921 286.73 69.4702C286.342 69.1482 285.859 68.9872 285.281 68.9872C284.689 68.9872 284.197 69.1482 283.804 69.4702C283.416 69.7921 283.125 70.2254 282.93 70.7699C282.741 71.3097 282.646 71.9134 282.646 72.581C282.646 73.2438 282.741 73.8452 282.93 74.3849C283.125 74.9247 283.416 75.3556 283.804 75.6776C284.197 75.9948 284.689 76.1534 285.281 76.1534ZM295.248 71.608V78H292.676V67.0909H295.134V68.9446H295.262C295.513 68.3338 295.913 67.8485 296.462 67.4886C297.016 67.1288 297.7 66.9489 298.515 66.9489C299.267 66.9489 299.923 67.1098 300.482 67.4318C301.045 67.7538 301.481 68.2202 301.789 68.831C302.101 69.4418 302.255 70.1828 302.25 71.054V78H299.679V71.4517C299.679 70.7225 299.49 70.152 299.111 69.7401C298.737 69.3281 298.219 69.1222 297.556 69.1222C297.106 69.1222 296.706 69.2216 296.355 69.4205C296.01 69.6146 295.738 69.8963 295.539 70.2656C295.345 70.6349 295.248 71.0824 295.248 71.608ZM309.939 78V63.4545H312.574V69.6122H319.314V63.4545H321.956V78H319.314V71.821H312.574V78H309.939ZM331.661 73.4119V67.0909H334.232V78H331.739V76.0611H331.625C331.379 76.6719 330.974 77.1714 330.411 77.5597C329.852 77.9479 329.163 78.142 328.344 78.142C327.629 78.142 326.997 77.9834 326.448 77.6662C325.903 77.3442 325.477 76.8778 325.169 76.267C324.862 75.6515 324.708 74.9081 324.708 74.0369V67.0909H327.279V73.6392C327.279 74.3305 327.468 74.8797 327.847 75.2869C328.226 75.6941 328.723 75.8977 329.338 75.8977C329.717 75.8977 330.084 75.8054 330.439 75.6207C330.794 75.4361 331.086 75.1615 331.313 74.7969C331.545 74.4276 331.661 73.9659 331.661 73.4119ZM336.989 78V63.4545H339.56V68.8949H339.667C339.799 68.6297 339.987 68.348 340.228 68.0497C340.469 67.7467 340.796 67.4886 341.208 67.2756C341.62 67.0578 342.146 66.9489 342.785 66.9489C343.628 66.9489 344.388 67.1643 345.065 67.5952C345.746 68.0213 346.286 68.6534 346.684 69.4915C347.086 70.3248 347.288 71.3475 347.288 72.5597C347.288 73.7576 347.091 74.7756 346.698 75.6136C346.305 76.4517 345.77 77.0909 345.093 77.5312C344.416 77.9716 343.649 78.1918 342.792 78.1918C342.167 78.1918 341.648 78.0876 341.237 77.8793C340.825 77.6709 340.493 77.42 340.242 77.1264C339.996 76.8281 339.804 76.5464 339.667 76.2812H339.518V78H336.989ZM339.511 72.5455C339.511 73.2509 339.61 73.8688 339.809 74.3991C340.013 74.9295 340.304 75.3437 340.683 75.642C341.066 75.9356 341.53 76.0824 342.075 76.0824C342.643 76.0824 343.119 75.9309 343.502 75.6278C343.886 75.3201 344.174 74.901 344.369 74.3707C344.567 73.8357 344.667 73.2273 344.667 72.5455C344.667 71.8684 344.57 71.267 344.376 70.7415C344.182 70.2159 343.893 69.804 343.509 69.5057C343.126 69.2074 342.647 69.0582 342.075 69.0582C341.525 69.0582 341.059 69.2027 340.675 69.4915C340.292 69.7803 340.001 70.1851 339.802 70.706C339.608 71.2268 339.511 71.84 339.511 72.5455Z" fill="#585858"/>
</svg>
