<svg width="108" height="100" viewBox="0 0 108 100" fill="none" xmlns="http://www.w3.org/2000/svg">
<path d="M0 59.895L30.768 42.1311V77.6589L0 59.895Z" fill="#C12D2D"/>
<path d="M0 59.895L30.768 77.6589V59.895H0Z" fill="#9A2727"/>
<path d="M107.581 59.3863C107.581 81.8166 89.3978 100 66.9675 100C44.5372 100 26.3538 81.8166 26.3538 59.3863C26.3538 36.9559 44.5372 18.7726 66.9675 18.7726C89.3978 18.7726 107.581 36.9559 107.581 59.3863Z" fill="#5DA7CC"/>
<path d="M100.722 59.7473C100.722 78.3894 85.6096 93.5018 66.9675 93.5018C48.3254 93.5018 33.213 78.3894 33.213 59.7473C33.213 41.1052 48.3254 25.9928 66.9675 25.9928C85.6096 25.9928 100.722 41.1052 100.722 59.7473Z" fill="#407B99"/>
<path d="M90.2527 59.9278C90.2527 72.8875 79.7468 83.3935 66.787 83.3935C53.8273 83.3935 43.3213 72.8875 43.3213 59.9278C43.3213 46.968 53.8273 36.4621 66.787 36.4621C79.7468 36.4621 90.2527 46.968 90.2527 59.9278Z" fill="#37667D"/>
<path d="M79.5865 51.6902C79.5865 58.4872 74.0764 63.9974 67.2793 63.9974C60.4822 63.9974 54.9721 58.4872 54.9721 51.6902C54.9721 44.8931 60.4822 39.383 67.2793 39.383C74.0764 39.383 79.5865 44.8931 79.5865 51.6902Z" fill="black"/>
<path d="M67.2793 47.5878C67.2793 49.8535 65.4426 51.6902 63.1769 51.6902C60.9112 51.6902 59.0745 49.8535 59.0745 47.5878C59.0745 45.3221 60.9112 43.4854 63.1769 43.4854C65.4426 43.4854 67.2793 45.3221 67.2793 47.5878Z" fill="white"/>
<path d="M73.8431 8.20479C73.8431 12.7362 70.1697 16.4096 65.6383 16.4096C61.1069 16.4096 57.4335 12.7362 57.4335 8.20479C57.4335 3.67341 61.1069 0 65.6383 0C70.1697 0 73.8431 3.67341 73.8431 8.20479Z" fill="#5DA7CC"/>
<path d="M87.7913 12.7174C87.7913 16.116 85.0362 18.871 81.6377 18.871C78.2391 18.871 75.4841 16.116 75.4841 12.7174C75.4841 9.31889 78.2391 6.56384 81.6377 6.56384C85.0362 6.56384 87.7913 9.31889 87.7913 12.7174Z" fill="#37667D"/>
<path d="M95.9961 19.6915C95.9961 21.9572 94.1594 23.7939 91.8937 23.7939C89.628 23.7939 87.7913 21.9572 87.7913 19.6915C87.7913 17.4258 89.628 15.5891 91.8937 15.5891C94.1594 15.5891 95.9961 17.4258 95.9961 19.6915Z" fill="#37667D"/>
</svg>
