<svg width="26" height="24" viewBox="0 0 26 24" fill="none" xmlns="http://www.w3.org/2000/svg">
<path d="M0 14.3748L7.38431 10.1115V18.6381L0 14.3748Z" fill="#C12D2D"/>
<path d="M0 14.3748L7.38431 18.6381V14.3748H0Z" fill="#9A2727"/>
<path d="M25.8195 14.2527C25.8195 19.636 21.4555 24 16.0722 24C10.6889 24 6.32491 19.636 6.32491 14.2527C6.32491 8.86943 10.6889 4.50541 16.0722 4.50541C21.4555 4.50541 25.8195 8.86943 25.8195 14.2527Z" fill="#5DA7CC"/>
<path d="M24.1733 14.3393C24.1733 18.8135 20.5463 22.4404 16.0722 22.4404C11.5981 22.4404 7.97112 18.8135 7.97112 14.3393C7.97112 9.86524 11.5981 6.23827 16.0722 6.23827C20.5463 6.23827 24.1733 9.86524 24.1733 14.3393Z" fill="#407B99"/>
<path d="M21.6607 14.3827C21.6607 17.493 19.1392 20.0144 16.0289 20.0144C12.9185 20.0144 10.3971 17.493 10.3971 14.3827C10.3971 11.2723 12.9185 8.7509 16.0289 8.7509C19.1392 8.7509 21.6607 11.2723 21.6607 14.3827Z" fill="#37667D"/>
<path d="M19.1008 12.4056C19.1008 14.0369 17.7783 15.3594 16.147 15.3594C14.5157 15.3594 13.1933 14.0369 13.1933 12.4056C13.1933 10.7743 14.5157 9.45192 16.147 9.45192C17.7783 9.45192 19.1008 10.7743 19.1008 12.4056Z" fill="black"/>
<path d="M16.147 11.4211C16.147 11.9648 15.7062 12.4056 15.1625 12.4056C14.6187 12.4056 14.1779 11.9648 14.1779 11.4211C14.1779 10.8773 14.6187 10.4365 15.1625 10.4365C15.7062 10.4365 16.147 10.8773 16.147 11.4211Z" fill="white"/>
<path d="M17.7223 1.96915C17.7223 3.05668 16.8407 3.9383 15.7532 3.9383C14.6657 3.9383 13.784 3.05668 13.784 1.96915C13.784 0.881618 14.6657 0 15.7532 0C16.8407 0 17.7223 0.881618 17.7223 1.96915Z" fill="#5DA7CC"/>
<path d="M21.0699 3.05218C21.0699 3.86783 20.4087 4.52905 19.593 4.52905C18.7774 4.52905 18.1162 3.86783 18.1162 3.05218C18.1162 2.23653 18.7774 1.57532 19.593 1.57532C20.4087 1.57532 21.0699 2.23653 21.0699 3.05218Z" fill="#37667D"/>
<path d="M23.0391 4.72596C23.0391 5.26973 22.5982 5.71053 22.0545 5.71053C21.5107 5.71053 21.0699 5.26973 21.0699 4.72596C21.0699 4.18219 21.5107 3.74138 22.0545 3.74138C22.5982 3.74138 23.0391 4.18219 23.0391 4.72596Z" fill="#37667D"/>
</svg>
