<svg width="54" height="50" viewBox="0 0 54 50" fill="none" xmlns="http://www.w3.org/2000/svg">
<path d="M0 29.9475L15.384 21.0655V38.8294L0 29.9475Z" fill="#C12D2D"/>
<path d="M0 29.9475L15.384 38.8294V29.9475H0Z" fill="#9A2727"/>
<path d="M53.7906 29.6931C53.7906 40.9083 44.6989 50 33.4838 50C22.2686 50 13.1769 40.9083 13.1769 29.6931C13.1769 18.478 22.2686 9.38628 33.4838 9.38628C44.6989 9.38628 53.7906 18.478 53.7906 29.6931Z" fill="#5DA7CC"/>
<path d="M50.361 29.8736C50.361 39.1947 42.8048 46.7509 33.4838 46.7509C24.1627 46.7509 16.6065 39.1947 16.6065 29.8736C16.6065 20.5526 24.1627 12.9964 33.4838 12.9964C42.8048 12.9964 50.361 20.5526 50.361 29.8736Z" fill="#407B99"/>
<path d="M45.1264 29.9639C45.1264 36.4438 39.8734 41.6967 33.3935 41.6967C26.9136 41.6967 21.6606 36.4438 21.6606 29.9639C21.6606 23.484 26.9136 18.231 33.3935 18.231C39.8734 18.231 45.1264 23.484 45.1264 29.9639Z" fill="#37667D"/>
<path d="M39.7932 25.8451C39.7932 29.2436 37.0382 31.9987 33.6396 31.9987C30.2411 31.9987 27.4861 29.2436 27.4861 25.8451C27.4861 22.4466 30.2411 19.6915 33.6396 19.6915C37.0382 19.6915 39.7932 22.4466 39.7932 25.8451Z" fill="black"/>
<path d="M33.6396 23.7939C33.6396 24.9267 32.7213 25.8451 31.5884 25.8451C30.4556 25.8451 29.5373 24.9267 29.5373 23.7939C29.5373 22.661 30.4556 21.7427 31.5884 21.7427C32.7213 21.7427 33.6396 22.661 33.6396 23.7939Z" fill="white"/>
<path d="M36.9216 4.1024C36.9216 6.36809 35.0849 8.20479 32.8192 8.20479C30.5535 8.20479 28.7168 6.36809 28.7168 4.1024C28.7168 1.8367 30.5535 0 32.8192 0C35.0849 0 36.9216 1.8367 36.9216 4.1024Z" fill="#5DA7CC"/>
<path d="M43.8956 6.35871C43.8956 8.05798 42.5181 9.43551 40.8188 9.43551C39.1196 9.43551 37.742 8.05798 37.742 6.35871C37.742 4.65945 39.1196 3.28192 40.8188 3.28192C42.5181 3.28192 43.8956 4.65945 43.8956 6.35871Z" fill="#37667D"/>
<path d="M47.998 9.84575C47.998 10.9786 47.0797 11.8969 45.9468 11.8969C44.814 11.8969 43.8956 10.9786 43.8956 9.84575C43.8956 8.7129 44.814 7.79455 45.9468 7.79455C47.0797 7.79455 47.998 8.7129 47.998 9.84575Z" fill="#37667D"/>
</svg>
