<svg width="76" height="70" viewBox="0 0 76 70" fill="none" xmlns="http://www.w3.org/2000/svg">
<path d="M0 41.9265L21.5376 29.4918V54.3612L0 41.9265Z" fill="#C12D2D"/>
<path d="M0 41.9265L21.5376 54.3612V41.9265H0Z" fill="#9A2727"/>
<path d="M75.3069 41.5704C75.3069 57.2716 62.5785 70 46.8773 70C31.176 70 18.4477 57.2716 18.4477 41.5704C18.4477 25.8692 31.176 13.1408 46.8773 13.1408C62.5785 13.1408 75.3069 25.8692 75.3069 41.5704Z" fill="#5DA7CC"/>
<path d="M70.5054 41.8231C70.5054 54.8726 59.9267 65.4513 46.8772 65.4513C33.8278 65.4513 23.2491 54.8726 23.2491 41.8231C23.2491 28.7736 33.8278 18.1949 46.8772 18.1949C59.9267 18.1949 70.5054 28.7736 70.5054 41.8231Z" fill="#407B99"/>
<path d="M63.1769 41.9495C63.1769 51.0213 55.8227 58.3754 46.7509 58.3754C37.6791 58.3754 30.3249 51.0213 30.3249 41.9495C30.3249 32.8776 37.6791 25.5235 46.7509 25.5235C55.8227 25.5235 63.1769 32.8776 63.1769 41.9495Z" fill="#37667D"/>
<path d="M55.7105 36.1831C55.7105 40.9411 51.8535 44.7982 47.0955 44.7982C42.3376 44.7982 38.4805 40.9411 38.4805 36.1831C38.4805 31.4252 42.3376 27.5681 47.0955 27.5681C51.8535 27.5681 55.7105 31.4252 55.7105 36.1831Z" fill="black"/>
<path d="M47.0955 33.3115C47.0955 34.8974 45.8098 36.1831 44.2238 36.1831C42.6378 36.1831 41.3522 34.8974 41.3522 33.3115C41.3522 31.7255 42.6378 30.4398 44.2238 30.4398C45.8098 30.4398 47.0955 31.7255 47.0955 33.3115Z" fill="white"/>
<path d="M51.6902 5.74335C51.6902 8.91532 49.1188 11.4867 45.9468 11.4867C42.7749 11.4867 40.2035 8.91532 40.2035 5.74335C40.2035 2.57139 42.7749 0 45.9468 0C49.1188 0 51.6902 2.57139 51.6902 5.74335Z" fill="#5DA7CC"/>
<path d="M61.4539 8.9022C61.4539 11.2812 59.5253 13.2097 57.1464 13.2097C54.7674 13.2097 52.8389 11.2812 52.8389 8.9022C52.8389 6.52323 54.7674 4.59469 57.1464 4.59469C59.5253 4.59469 61.4539 6.52323 61.4539 8.9022Z" fill="#37667D"/>
<path d="M67.1973 13.784C67.1973 15.37 65.9116 16.6557 64.3256 16.6557C62.7396 16.6557 61.4539 15.37 61.4539 13.784C61.4539 12.1981 62.7396 10.9124 64.3256 10.9124C65.9116 10.9124 67.1973 12.1981 67.1973 13.784Z" fill="#37667D"/>
</svg>
